<?xml version="1.0" encoding="UTF-8"?>
<svg width="30px" height="32px" viewBox="0 0 30 32" version="1.1" xmlns="http://www.w3.org/2000/svg" xmlns:xlink="http://www.w3.org/1999/xlink">
    <!-- Generator: Sketch 60.1 (88133) - https://sketch.com -->
    <title>Group 8</title>
    <desc>Created with Sketch.</desc>
    <defs>
        <polygon id="path-1" points="0 0.0249164177 29.9795643 0.0249164177 29.9795643 27 0 27"></polygon>
    </defs>
    <g id="Mocks" stroke="none" stroke-width="1" fill="none" fill-rule="evenodd">
        <g id="Flow-2-Copy-6" transform="translate(-865.000000, -156.000000)">
            <g id="Modal" transform="translate(833.000000, 128.000000)">
                <g id="Group-8" transform="translate(32.000000, 29.000000)">
                    <g id="Group-3" transform="translate(0.000000, 4.000000)">
                        <mask id="mask-2" fill="white">
                            <use xlink:href="#path-1"></use>
                        </mask>
                        <g id="Clip-2"></g>
                        <path d="M0.0253248731,9.12348101 C-0.0713756345,6.85578268 0.39522335,4.74374916 1.15207614,2.68858156 C1.37288832,2.08900056 1.66207614,1.50933017 1.96999492,0.947458659 C2.42837056,0.110307821 3.60202538,-0.204641899 4.60298985,0.200659777 C5.45867513,0.547134637 6.02227919,1.66771006 5.74725381,2.54091117 C5.46461421,3.43839721 4.99177157,4.26348101 4.73029949,5.17424078 C3.76527411,8.53732458 3.98106091,11.8254419 5.48517259,14.9761458 C7.01075635,18.1725536 9.44304061,20.5254754 12.7733452,21.8321849 C17.6292335,23.7375704 22.2288274,23.1720788 26.4988782,20.1612017 C27.6024822,19.3828777 28.8799949,19.4916318 29.5702995,20.4321067 C30.295934,21.420548 30.0452741,22.6271011 28.9087766,23.460481 C25.152533,26.2149335 20.9459848,27.3398832 16.2920254,26.9116542 C13.9645127,26.6974642 11.7694873,26.0651514 9.72644162,24.9702184 C4.78618782,22.3225592 1.64486802,18.2814587 0.364918782,12.855062 C0.0722284264,11.6136654 -0.0594974619,10.3430061 0.0253248731,9.12348101" id="Fill-1" stroke="#F7F6F7" fill="#0A7FFF" mask="url(#mask-2)"></path>
                    </g>
                    <path d="M17.7611081,0.0178336326 C19.4520331,-0.07160521 21.0165153,0.31448267 22.5312421,0.904105177 C23.7615867,1.38300117 24.286834,2.5138512 23.8457298,3.57792838 C23.3633908,4.74139908 22.1911703,5.22213286 20.9812148,4.72286809 C18.5536959,3.72081612 16.1173518,3.89770288 13.8433597,5.01905768 C11.7158951,6.06797315 10.2792251,7.88646085 9.56058575,10.1941055 C8.73650135,12.8409745 9.11339519,15.3287221 10.6133627,17.6604111 C11.3268287,18.769514 11.0858114,20.0162976 10.0929844,20.6559997 C9.08965864,21.3025935 7.87879016,21.0244755 7.15771631,19.9328315 C5.24844543,17.0419966 4.57971372,13.8738094 5.25772703,10.4694669 C6.20840638,5.69505606 9.04994556,2.48873481 13.5122652,0.720326734 C14.8798558,0.178333473 16.3233729,-0.0717583587 17.7611081,0.0178336326" id="Fill-4" stroke="#F7F6F7" fill="#0A7FFF"></path>
                    <path d="M19.0593144,20 L18.9422187,20 C18.8835208,19.942996 18.8192683,19.8905583 18.7671758,19.8282516 C17.7253248,18.5859482 16.6854254,17.3424665 15.644325,16.0995739 C15.1176948,15.4706154 14.5900138,14.8425408 14.0630834,14.2140242 C13.9839688,14.1197541 13.9796152,14.030934 14.0480711,13.9344544 C14.0666864,13.9082355 14.0872531,13.8834896 14.1057182,13.8572707 C14.7030561,13.0095762 15.2993432,12.1611451 15.9001339,11.3158073 C15.9349624,11.2669047 16.0038687,11.2178547 16.0615158,11.2119629 C16.3426954,11.1830926 16.6255264,11.1692467 16.907757,11.1493616 C17.4106678,11.1137157 17.9132783,11.0779225 18.416039,11.0415402 C18.6104477,11.0273996 18.8047064,11.000297 18.9991152,11 C19.1900712,10.9997078 19.3811773,11.0266632 19.5722834,11.0402145 C20.3539719,11.0961874 21.1359606,11.1496562 21.9171987,11.2106372 C21.9793495,11.215498 22.0427013,11.2642533 22.0955444,11.3050546 C22.1318741,11.3331883 22.1497387,11.3834166 22.1775114,11.422745 C22.7849075,12.2828125 23.3924537,13.1427327 24,14.0026529 L24,14.1368406 C23.9530116,14.1928134 23.9060232,14.2487863 23.859185,14.3047592 C22.3196775,16.143763 20.7804702,17.9827668 19.240062,19.8208868 C19.1858678,19.8854029 19.1198138,19.940492 19.0593144,20" id="Fill-6" fill="#0A7FFF"></path>
                </g>
            </g>
        </g>
    </g>
</svg>