<?xml version="1.0" encoding="UTF-8"?>
<svg width="10px" height="13px" viewBox="0 0 10 13" version="1.1" xmlns="http://www.w3.org/2000/svg" xmlns:xlink="http://www.w3.org/1999/xlink">
    <!-- Generator: Sketch 60.1 (88133) - https://sketch.com -->
    <title>Path</title>
    <desc>Created with Sketch.</desc>
    <g id="Mocks" stroke="none" stroke-width="1" fill="none" fill-rule="evenodd">
        <g id="Flow-2-Copy-6" transform="translate(-964.000000, -253.000000)" fill="#0A7FFF" fill-rule="nonzero">
            <g id="undo-arrow" transform="translate(958.000000, 249.000000)">
                <path d="M16,12.1129591 C16,14.8076826 13.8390149,17 11.1831809,17 L9.47811267,17 C9.19555915,17 8.96658657,16.7677179 8.96658657,16.4810452 L8.96658657,16.3080412 C8.96658657,16.02134 9.19553098,15.7890579 9.47811267,15.7890579 L11.1831809,15.7890579 C13.1809723,15.7890579 14.8064579,14.1398752 14.8064579,12.1129591 C14.8064579,10.086043 13.1809723,8.43686039 11.1831809,8.43686039 L8.03742778,8.43686039 L10.2039062,10.6349227 C10.4365973,10.8709203 10.4365973,11.2551132 10.2039062,11.4911109 C9.97811689,11.7200203 9.58516186,11.7196773 9.35987965,11.4911109 L6.17482823,8.2595406 C6.0621167,8.14518591 6,7.99313219 6,7.83136075 C6,7.66970364 6.0621167,7.51756417 6.17482823,7.40326665 L9.36004868,4.17155347 C9.58533088,3.94281551 9.97862397,3.94281551 10.2039343,4.17155347 C10.4366255,4.40749397 10.4366255,4.79174401 10.2039343,5.02765592 L8.03745595,7.2258897 L11.1831809,7.2258897 C13.8390149,7.2258897 16,9.41829284 16,12.1129591 Z" id="Path"></path>
            </g>
        </g>
    </g>
</svg>