<?xml version="1.0" encoding="UTF-8"?>
<svg width="18px" height="18px" viewBox="0 0 18 18" version="1.1" xmlns="http://www.w3.org/2000/svg" xmlns:xlink="http://www.w3.org/1999/xlink">
    <!-- Generator: Sketch 60.1 (88133) - https://sketch.com -->
    <title>ðŸŽ¨ Icon</title>
    <desc>Created with Sketch.</desc>
    <defs>
        <path d="M9,0 C13.9705627,0 18,4.02943725 18,9 C18,13.9705627 13.9705627,18 9,18 C4.02943725,18 0,13.9705627 0,9 C0,4.02943725 4.02943725,0 9,0 Z M9,0.9 C4.52649353,0.9 0.9,4.52649353 0.9,9 C0.9,13.4735065 4.52649353,17.1 9,17.1 C13.4735065,17.1 17.1,13.4735065 17.1,9 C17.1,4.52649353 13.4735065,0.9 9,0.9 Z M14.1124321,5.10753788 C14.495856,5.51758839 14.495856,6.18241161 14.1124321,6.59246212 L8.22152302,12.8924621 C7.83809917,13.3025126 7.21644628,13.3025126 6.83302243,12.8924621 L3.88756789,9.74246212 C3.50414404,9.33241161 3.50414404,8.66758839 3.88756789,8.25753788 C4.27099174,7.84748737 4.89264463,7.84748737 5.27606848,8.25753788 L7.52727273,10.6650758 L12.7239315,5.10753788 C13.1073554,4.69748737 13.7290083,4.69748737 14.1124321,5.10753788 Z" id="path-1"></path>
    </defs>
    <g id="Mocks" stroke="none" stroke-width="1" fill="none" fill-rule="evenodd">
        <g id="Flow-2-Copy-6" transform="translate(-864.000000, -375.000000)">
            <g id="Modal" transform="translate(833.000000, 128.000000)">
                <g id="Group-2" transform="translate(31.000000, 222.000000)">
                    <g id="WCAG-Contrast-Checker">
                        <g id="Flow/Answer/Yes" transform="translate(0.000000, 25.000000)">
                            <g id="Icons/Statuses/âœ”ï¸-ðŸ”—">
                                <mask id="mask-2" fill="white">
                                    <use xlink:href="#path-1"></use>
                                </mask>
                                <use id="ðŸŽ¨-Icon" fill="#0CB142" xlink:href="#path-1"></use>
                            </g>
                        </g>
                    </g>
                </g>
            </g>
        </g>
    </g>
</svg>