<?xml version="1.0" encoding="UTF-8"?>
<svg width="15px" height="15px" viewBox="0 0 15 15" version="1.1" xmlns="http://www.w3.org/2000/svg" xmlns:xlink="http://www.w3.org/1999/xlink">
    <!-- Generator: Sketch 59 (86127) - https://sketch.com -->
    <title>Flow/Answer/Yes</title>
    <desc>Created with Sketch.</desc>
    <defs>
        <path d="M7.5,0 C11.6421356,0 15,3.35786438 15,7.5 C15,11.6421356 11.6421356,15 7.5,15 C3.35786438,15 0,11.6421356 0,7.5 C0,3.35786438 3.35786438,0 7.5,0 Z M7.5,0.75 C3.77207794,0.75 0.75,3.77207794 0.75,7.5 C0.75,11.2279221 3.77207794,14.25 7.5,14.25 C11.2279221,14.25 14.25,11.2279221 14.25,7.5 C14.25,3.77207794 11.2279221,0.75 7.5,0.75 Z M11.7603601,4.25628157 C12.07988,4.59799032 12.07988,5.15200968 11.7603601,5.49371843 L6.85126918,10.7437184 C6.53174931,11.0854272 6.01370524,11.0854272 5.69418536,10.7437184 L3.23963991,8.11871843 C2.92012003,7.77700968 2.92012003,7.22299032 3.23963991,6.88128157 C3.55915978,6.53957281 4.07720385,6.53957281 4.39672373,6.88128157 L6.27272727,8.88756313 L10.6032763,4.25628157 C10.9227961,3.91457281 11.4408402,3.91457281 11.7603601,4.25628157 Z" id="path-1"></path>
    </defs>
    <g id="Page-1" stroke="none" stroke-width="1" fill="none" fill-rule="evenodd">
        <g id="Color-Contrast-Copy-8" transform="translate(-576.000000, -298.000000)">
            <g id="Modal" transform="translate(507.000000, 180.000000)">
                <g id="Pass-State" transform="translate(30.000000, 93.000000)">
                    <g id="AA" transform="translate(0.000000, 25.000000)">
                        <g id="Flow/Answer/Yes" transform="translate(39.000000, 0.000000)">
                            <g id="Icons/Statuses/âœ”ï¸-ðŸ”—">
                                <polygon id="Bounds" points="0 0 15 0 15 15 0 15"></polygon>
                                <mask id="mask-2" fill="white">
                                    <use xlink:href="#path-1"></use>
                                </mask>
                                <use id="ðŸŽ¨-Icon" fill="#47CF73" xlink:href="#path-1"></use>
                            </g>
                        </g>
                    </g>
                </g>
            </g>
        </g>
    </g>
</svg>