<?xml version="1.0" encoding="UTF-8"?>
<svg width="311px" height="311px" viewBox="0 0 311 311" version="1.1" xmlns="http://www.w3.org/2000/svg" xmlns:xlink="http://www.w3.org/1999/xlink">
    <!-- Generator: Sketch 64 (93537) - https://sketch.com -->
    <title>Group 4</title>
    <desc>Created with Sketch.</desc>
    <defs>
        <linearGradient x1="76.981972%" y1="8.83196267%" x2="17.5290842%" y2="88.9062651%" id="linearGradient-1">
            <stop stop-color="#44B6FF" offset="0%"></stop>
            <stop stop-color="#0A7FFF" offset="100%"></stop>
        </linearGradient>
        <circle id="path-2" cx="145.5" cy="145.5" r="145.5"></circle>
        <filter x="-5.5%" y="-4.8%" width="111.0%" height="111.0%" filterUnits="objectBoundingBox" id="filter-3">
            <feOffset dx="0" dy="2" in="SourceAlpha" result="shadowOffsetOuter1"></feOffset>
            <feGaussianBlur stdDeviation="5" in="shadowOffsetOuter1" result="shadowBlurOuter1"></feGaussianBlur>
            <feColorMatrix values="0 0 0 0 0   0 0 0 0 0   0 0 0 0 0  0 0 0 0.5 0" type="matrix" in="shadowBlurOuter1"></feColorMatrix>
        </filter>
        <filter x="-6.8%" y="-7.6%" width="113.6%" height="115.2%" filterUnits="objectBoundingBox" id="filter-4">
            <feOffset dx="0" dy="2" in="SourceAlpha" result="shadowOffsetOuter1"></feOffset>
            <feGaussianBlur stdDeviation="2" in="shadowOffsetOuter1" result="shadowBlurOuter1"></feGaussianBlur>
            <feColorMatrix values="0 0 0 0 0   0 0 0 0 0   0 0 0 0 0  0 0 0 0.5 0" type="matrix" in="shadowBlurOuter1" result="shadowMatrixOuter1"></feColorMatrix>
            <feMerge>
                <feMergeNode in="shadowMatrixOuter1"></feMergeNode>
                <feMergeNode in="SourceGraphic"></feMergeNode>
            </feMerge>
        </filter>
        <polygon id="path-5" points="0 0.145436309 176.188494 0.145436309 176.188494 157.59811 0 157.59811"></polygon>
        <path d="M103.351397,5.53206044 C111.531326,5.09254897 119.630364,6.74505013 128.915113,10.4164251 C133.260428,12.1345492 134.912482,15.6051552 133.515702,19.0279335 C131.850816,23.1074286 128.22817,24.5894273 123.992068,22.8138207 C108.659075,16.3843766 92.7715764,17.181826 77.7099177,24.7265915 C64.1335361,31.526155 54.5980555,43.3703189 49.8768891,58.7705099 C44.6203693,75.9210544 46.9477198,92.3816121 56.6462755,107.69653 C59.2002138,111.729527 58.4928285,115.733335 55.2470473,117.857765 C51.950591,120.015786 48.2691836,119.112662 45.7095901,115.176336 C35.2308342,99.0593318 31.7563275,81.7032465 35.4018628,63.1091455 C40.5069981,37.0648967 55.4933486,19.2903662 80.2774865,9.31303296 C87.632482,6.35202861 95.2518127,5.05679822 102.71161,5.52900928 L103.057575,0 L103.351397,5.53206044 Z" id="path-7"></path>
        <filter x="-7.0%" y="-4.2%" width="114.0%" height="111.8%" filterUnits="objectBoundingBox" id="filter-8">
            <feOffset dx="0" dy="2" in="SourceAlpha" result="shadowOffsetOuter1"></feOffset>
            <feGaussianBlur stdDeviation="2" in="shadowOffsetOuter1" result="shadowBlurOuter1"></feGaussianBlur>
            <feColorMatrix values="0 0 0 0 0   0 0 0 0 0   0 0 0 0 0  0 0 0 0.5 0" type="matrix" in="shadowBlurOuter1"></feColorMatrix>
        </filter>
        <path d="M111.664869,117 C111.324421,116.651643 110.951756,116.33119 110.649619,115.950427 C104.606884,108.358575 98.5754671,100.759522 92.5370849,93.1640688 C89.48263,89.3204349 86.4220801,85.4822019 83.3658838,81.6412684 C82.907019,81.0651734 82.8817683,80.5223839 83.2788126,79.9327866 C83.3867808,79.7725602 83.5060683,79.6213353 83.6131657,79.4611088 C87.0777256,74.2807545 90.5361906,69.0958993 94.0207768,63.9299473 C94.2227818,63.631098 94.6224383,63.3313486 94.9567914,63.2953427 C96.5876334,63.1189136 98.2280534,63.0342996 99.8649904,62.9127796 C102.781873,62.6949436 105.697014,62.4762076 108.613026,62.2538709 C109.740597,62.1674567 110.867297,62.0018293 111.994868,62 C113.102413,61.9982287 114.210828,62.1629559 115.319244,62.2457696 C119.853037,62.587826 124.388572,62.9145799 128.919753,63.2872413 C129.280227,63.3169462 129.647667,63.6148954 129.954158,63.8642365 C130.16487,64.0361649 130.268484,64.3431155 130.429566,64.5834551 C133.952463,69.839422 137.476232,75.0944887 141,80.3495554 L141,81.1695906 C140.727467,81.511647 140.454935,81.8537034 140.183273,82.1957599 C131.254129,93.4341134 122.326727,104.672467 113.39236,115.905419 C113.078033,116.299684 112.69492,116.63634 112.344023,117 L111.664869,117 Z" id="path-9"></path>
        <filter x="-12.1%" y="-9.1%" width="124.1%" height="125.5%" filterUnits="objectBoundingBox" id="filter-10">
            <feOffset dx="0" dy="2" in="SourceAlpha" result="shadowOffsetOuter1"></feOffset>
            <feGaussianBlur stdDeviation="2" in="shadowOffsetOuter1" result="shadowBlurOuter1"></feGaussianBlur>
            <feColorMatrix values="0 0 0 0 0   0 0 0 0 0   0 0 0 0 0  0 0 0 0.5 0" type="matrix" in="shadowBlurOuter1"></feColorMatrix>
        </filter>
    </defs>
    <g id="Demo" stroke="none" stroke-width="1" fill="none" fill-rule="evenodd">
        <g id="Group-4" transform="translate(10.000000, 8.000000)">
            <g id="Oval">
                <use fill="black" fill-opacity="1" filter="url(#filter-3)" xlink:href="#path-2"></use>
                <use fill="url(#linearGradient-1)" fill-rule="evenodd" xlink:href="#path-2"></use>
            </g>
            <g id="Group-8-Copy" transform="translate(47.000000, 55.000000)">
                <g id="Group-3" filter="url(#filter-4)" transform="translate(0.000000, 23.000000)">
                    <mask id="mask-6" fill="white">
                        <use xlink:href="#path-5"></use>
                    </mask>
                    <g id="Clip-2"></g>
                    <path d="M0.148833092,53.253458 L5.67502802,53.0178729 C5.18060396,41.5021519 7.31598428,30.1256356 11.9591307,17.6033609 C13.0218671,14.7373001 14.4488896,11.7662304 16.4245048,8.18577538 C17.6588108,5.94684874 21.5007748,4.88254131 24.9814457,6.28231465 C27.4123458,7.25991148 29.2217086,10.9014611 28.5021483,13.170509 L28.110147,14.341756 L27.6555843,15.5650922 C27.4049184,16.2104197 27.1133674,16.9217141 26.7547943,17.7686256 L24.4578534,23.1398413 C23.5589935,25.3161821 23.0176481,26.8322354 22.4845875,28.6763594 C16.3772972,49.8152665 17.9122473,70.3742953 27.2475195,89.7960968 C36.9361714,109.957674 52.4179974,124.525044 73.0537374,132.566786 C103.297237,144.353187 132.282074,140.839825 158.91316,122.189609 C163.086463,119.266385 167.17995,119.621312 169.329364,122.529761 C171.704248,125.742759 170.918428,129.366212 166.63164,132.488275 C145.774848,147.678494 122.427805,153.985938 96.2526381,151.593846 C83.1152357,150.393099 70.9606744,146.846548 59.7679992,140.888852 C32.0567983,126.138473 14.6640259,103.816333 7.52719516,73.7653144 C5.8718013,66.7920117 5.2237865,59.9612552 5.66666494,53.6371354 L0.148833092,53.253458 Z" id="Fill-1" fill="#FFFFFF" fill-rule="nonzero" mask="url(#mask-6)"></path>
                </g>
                <g id="Fill-4" fill-rule="nonzero">
                    <use fill="black" fill-opacity="1" filter="url(#filter-8)" xlink:href="#path-7"></use>
                    <use fill="#FFFFFF" xlink:href="#path-7"></use>
                </g>
                <g id="Fill-6">
                    <use fill="black" fill-opacity="1" filter="url(#filter-10)" xlink:href="#path-9"></use>
                    <use fill="#FAAF40" fill-rule="evenodd" xlink:href="#path-9"></use>
                </g>
            </g>
        </g>
    </g>
</svg>